<?xml version="1.0" standalone="no"?>
<!DOCTYPE svg PUBLIC "-//W3C//DTD SVG 20010904//EN"
 "http://www.w3.org/TR/2001/REC-SVG-20010904/DTD/svg10.dtd">
<svg version="1.0" xmlns="http://www.w3.org/2000/svg"
 width="640.000000pt" height="640.000000pt" viewBox="0 0 640.000000 640.000000"
 preserveAspectRatio="xMidYMid meet">
<metadata>
Created by potrace 1.14, written by Peter Selinger 2001-2017
</metadata>
<g transform="translate(0.000000,640.000000) scale(0.100000,-0.100000)"
fill="#000000" stroke="none">
<path d="M2961 6371 c-34 -32 -32 -21 -33 -221 0 -52 -5 -103 -10 -113 -12
-24 -84 -56 -140 -63 -24 -2 -54 -7 -68 -10 -14 -3 -36 -8 -50 -10 -14 -3 -64
-14 -112 -25 -97 -23 -152 -20 -178 8 -9 10 -37 68 -61 128 -72 183 -96 195
-264 121 -16 -8 -81 -35 -143 -61 -169 -71 -173 -84 -96 -272 l55 -135 -19
-31 c-20 -35 -50 -58 -207 -162 -235 -155 -221 -154 -351 -24 -102 103 -137
123 -184 107 -14 -5 -88 -71 -164 -147 -142 -143 -167 -182 -143 -227 5 -11
54 -65 109 -121 123 -126 123 -128 18 -278 -30 -44 -75 -111 -99 -150 -52 -83
-77 -112 -113 -131 -26 -13 -35 -11 -150 37 -68 28 -133 53 -146 55 -28 5 -78
-20 -92 -47 -32 -59 -150 -356 -150 -377 0 -50 34 -77 157 -127 65 -27 126
-56 136 -65 28 -26 31 -86 9 -181 -12 -47 -28 -127 -37 -179 -9 -51 -23 -110
-31 -129 -28 -67 -29 -68 -190 -69 -159 -1 -186 -9 -204 -58 -13 -33 -13 -395
0 -428 19 -50 48 -59 198 -58 75 0 145 -4 154 -9 29 -15 55 -78 67 -161 7 -42
23 -125 37 -184 27 -122 28 -139 13 -182 -8 -25 -21 -34 -72 -53 -34 -12 -66
-25 -72 -29 -5 -4 -36 -17 -67 -29 -118 -47 -121 -74 -29 -293 38 -92 75 -176
81 -187 14 -28 62 -51 91 -46 24 4 114 39 194 75 22 10 49 20 61 24 34 10 85
-33 141 -119 28 -44 78 -118 110 -164 58 -84 81 -129 82 -165 1 -11 -40 -61
-99 -121 -108 -109 -126 -142 -105 -191 16 -37 271 -290 305 -302 43 -16 84 8
190 111 55 53 106 97 114 97 32 0 88 -28 176 -90 52 -36 122 -82 155 -102 62
-38 94 -67 114 -105 9 -18 2 -43 -45 -158 -51 -126 -54 -139 -44 -171 15 -44
30 -54 202 -126 196 -81 194 -81 232 -74 47 9 60 28 116 162 27 65 57 125 65
133 23 24 102 20 240 -11 66 -15 143 -30 170 -34 58 -7 120 -36 134 -62 5 -10
9 -79 9 -155 0 -150 8 -179 58 -197 14 -6 115 -10 225 -10 l201 0 29 29 c16
16 29 38 30 48 0 10 1 76 2 148 1 72 6 136 10 143 17 26 77 46 217 73 80 15
170 33 202 40 43 10 65 10 95 1 38 -11 40 -14 88 -133 84 -209 87 -210 321
-114 193 79 225 98 236 142 8 31 -14 102 -71 228 -10 22 -21 49 -25 61 -10 34
33 85 119 141 44 28 118 77 164 110 83 58 129 81 165 82 11 1 60 -40 120 -98
109 -108 134 -123 181 -110 36 11 291 260 310 303 21 49 3 82 -105 191 -55 56
-100 109 -100 118 0 30 33 101 65 142 27 33 96 138 161 242 7 12 30 34 49 49
l36 27 140 -57 c127 -51 144 -56 174 -46 18 6 39 18 47 28 23 27 158 361 158
392 0 49 -33 75 -157 125 -65 27 -127 57 -138 67 -26 24 -28 92 -5 184 10 39
20 84 23 100 3 16 7 40 11 54 3 14 8 44 10 68 7 56 39 128 63 140 10 5 61 10
113 10 200 1 189 -1 221 33 l29 31 0 198 c0 109 -4 210 -10 224 -19 50 -47 58
-203 60 -78 1 -148 5 -155 9 -26 17 -47 77 -73 217 -15 80 -33 170 -40 202
-10 44 -10 65 -1 96 11 36 17 41 75 62 34 13 67 26 72 30 6 4 36 17 68 30 64
25 97 59 97 100 0 24 -107 296 -146 372 -18 34 -63 59 -96 53 -14 -3 -79 -27
-146 -55 -114 -47 -124 -50 -150 -36 -34 18 -60 47 -102 116 -19 30 -64 98
-100 150 -117 167 -117 165 7 291 108 110 125 137 112 183 -12 42 -273 304
-314 315 -46 13 -76 -5 -185 -113 l-99 -99 -48 12 c-26 7 -76 34 -113 60 -37
27 -104 72 -151 101 -97 61 -125 84 -145 123 -14 26 -12 34 35 146 64 151 67
169 38 211 -18 27 -51 44 -200 106 -98 41 -191 74 -206 74 -50 0 -75 -32 -132
-170 -53 -128 -55 -131 -92 -142 -30 -9 -52 -9 -95 1 -32 7 -122 25 -202 40
-140 26 -200 47 -217 73 -4 7 -8 77 -9 155 -2 156 -10 184 -60 203 -14 6 -115
10 -224 10 l-198 0 -31 -29z m486 -794 c4 -2 39 -8 78 -12 38 -4 119 -18 180
-31 699 -154 1283 -601 1613 -1234 147 -281 225 -548 262 -897 9 -86 6 -403
-5 -473 -6 -42 -34 -202 -40 -225 -1 -5 -8 -38 -15 -72 -7 -35 -15 -63 -19
-63 -3 0 -7 24 -8 54 -2 90 -48 234 -104 325 -13 21 -12 24 5 35 10 6 30 21
45 32 l25 22 -26 33 c-170 223 -414 341 -701 340 l-108 0 3 77 3 77 57 -2 c56
-2 56 -2 61 30 10 68 0 409 -12 417 -21 13 -199 -2 -261 -21 -72 -23 -140
-121 -140 -201 0 -26 -3 -28 -39 -28 -22 0 -59 -8 -83 -18 -26 -12 -53 -16
-68 -12 -14 3 -150 28 -302 55 -153 27 -278 53 -278 58 0 10 322 428 342 444
7 6 40 20 73 31 l60 20 5 54 c5 48 8 55 38 70 19 9 36 18 38 21 3 3 -2 32 -10
65 -20 74 -20 69 3 75 17 4 18 10 11 40 -36 161 -181 268 -344 255 -158 -13
-295 -152 -298 -304 0 -23 -3 -46 -7 -52 -3 -6 -109 -13 -261 -17 -222 -7
-329 -11 -364 -14 -6 -1 4 -16 22 -34 18 -18 32 -35 32 -37 0 -3 -64 -7 -143
-9 -78 -2 -180 -4 -227 -6 -47 -1 -87 -4 -90 -7 -3 -3 23 -28 58 -55 l63 -49
162 3 c89 2 188 5 220 7 31 1 57 1 57 -2 0 -8 -16 -18 -330 -229 -162 -109
-318 -220 -345 -248 -78 -77 -122 -191 -150 -387 l-6 -48 -102 0 c-457 -3
-545 -15 -727 -103 -103 -49 -107 -50 -205 -52 -55 -2 -108 2 -117 6 -28 15
-50 -30 -49 -97 0 -64 19 -95 52 -87 17 5 13 -6 -24 -59 -54 -79 -93 -160
-123 -252 -23 -75 -24 -75 -39 24 -3 19 -8 42 -10 50 -18 68 -25 417 -11 570
47 521 278 1026 644 1411 405 425 923 678 1517 739 76 7 448 6 462 -3z m53
-2057 l145 -1 -35 -30 c-122 -103 -174 -138 -191 -128 -35 18 -219 151 -219
158 0 3 35 5 77 4 43 -1 143 -2 223 -3z m954 -68 c3 -5 8 -27 12 -48 l6 -39
-74 -34 c-226 -105 -397 -295 -473 -528 -20 -63 -42 -187 -40 -230 1 -18 0
-33 -2 -33 -1 0 -12 19 -24 42 -12 23 -46 67 -75 98 l-53 56 22 25 c12 13 42
51 68 84 120 158 323 421 329 425 3 3 20 25 38 50 27 38 48 52 135 92 106 49
122 54 131 40z m419 -417 c79 -20 160 -62 150 -78 -4 -7 -47 -63 -96 -125 -87
-109 -91 -113 -121 -106 -17 3 -32 7 -34 9 -7 6 -79 305 -74 310 11 10 119 5
175 -10z m-3003 -41 l70 -16 -14 -31 c-7 -18 -30 -66 -50 -108 l-36 -76 -38 7
c-127 23 -261 -60 -298 -186 -16 -54 -15 -112 2 -170 5 -20 0 -22 -83 -33
-124 -15 -120 -16 -128 27 -5 20 -10 44 -12 52 -8 33 -3 141 8 187 63 255 316
407 579 347z m2684 8 c3 -5 21 -73 41 -152 l37 -143 -21 -26 c-52 -63 -62
-108 -49 -204 2 -13 -11 -26 -42 -44 -178 -100 -220 -123 -224 -123 -3 0 -15
26 -27 58 -33 82 -34 261 -2 345 40 107 134 218 233 275 40 23 47 25 54 14z
m-2458 -126 c32 -29 67 -68 77 -85 l18 -31 -98 -1 c-104 -1 -135 0 -142 7 -6
6 71 164 79 164 4 0 33 -24 66 -54z m3045 -15 c78 -100 110 -201 104 -331 -17
-385 -443 -613 -770 -412 -49 30 -145 122 -145 139 0 6 59 44 131 83 l131 72
51 -28 c80 -43 183 -30 239 33 51 56 62 153 24 219 l-23 41 95 126 c107 140
101 138 163 58z m-4119 -486 c3 -19 -1 -20 -46 -16 -12 1 -83 188 -74 196 2 1
26 14 53 28 l50 25 7 -107 c4 -58 9 -115 10 -126z m1105 44 c48 -18 90 -33 91
-35 6 -4 -19 -73 -28 -79 -6 -4 -173 50 -188 61 -6 4 21 84 29 84 4 0 48 -14
96 -31z m1783 -89 c0 -48 110 -280 133 -280 4 0 24 11 44 25 l36 24 56 -61
c101 -110 230 -189 373 -227 93 -24 303 -23 386 3 118 38 264 120 311 175 32
37 0 -21 -59 -109 -93 -138 -181 -243 -309 -370 -137 -137 -155 -152 -279
-242 -428 -310 -911 -461 -1442 -453 -145 2 -266 13 -365 31 -643 117 -1190
467 -1557 995 -68 98 -178 286 -178 305 0 6 12 9 27 6 20 -2 38 -18 60 -50 87
-126 214 -223 360 -275 92 -33 120 -38 238 -43 150 -5 282 30 413 110 53 33
72 47 147 117 l30 28 85 -15 c79 -15 306 -14 520 1 25 1 122 6 215 10 94 4
193 8 220 10 28 1 84 4 125 5 131 5 213 37 289 111 42 41 101 149 101 184 0 9
5 13 10 10 6 -3 10 -15 10 -25z m-2105 -246 c55 -3 102 -8 104 -9 11 -11 -93
-26 -162 -24 -71 2 -179 27 -197 46 -3 3 31 3 75 -1 44 -3 125 -9 180 -12z"/>
</g>
</svg>
